<?xml version="1.0" standalone="no"?>
<!DOCTYPE svg PUBLIC "-//W3C//DTD SVG 20010904//EN"
 "http://www.w3.org/TR/2001/REC-SVG-20010904/DTD/svg10.dtd">
<svg version="1.0" xmlns="http://www.w3.org/2000/svg"
 width="732.000000pt" height="732.000000pt" viewBox="0 0 732.000000 732.000000"
 preserveAspectRatio="xMidYMid meet">
<metadata>
Created by potrace 1.11, written by Peter Selinger 2001-2013
</metadata>
<g transform="translate(0.000000,732.000000) scale(0.100000,-0.100000)"
fill="#000000" stroke="none">
<path d="M5170 4974 c-176 -22 -330 -69 -482 -145 -140 -69 -244 -145 -363
-264 -207 -207 -327 -430 -391 -725 -27 -121 -27 -419 0 -540 64 -295 184
-518 391 -725 119 -119 223 -195 363 -264 215 -108 378 -145 632 -145 254 0
417 37 632 145 140 69 244 145 363 264 207 207 327 430 391 725 15 66 19 127
19 270 0 143 -4 204 -19 270 -44 204 -121 383 -228 535 -78 111 -237 272 -343
347 -154 108 -361 197 -547 233 -80 16 -346 28 -418 19z m365 -564 c160 -41
297 -122 410 -242 190 -199 276 -469 234 -728 -46 -286 -230 -532 -492 -656
-124 -58 -213 -77 -367 -77 -107 0 -151 4 -215 22 -163 44 -297 124 -410 243
-190 199 -276 469 -234 728 51 321 284 595 587 695 150 49 335 55 487 15z"/>
<path d="M892 4657 c-100 -100 -182 -187 -182 -192 0 -5 208 -218 462 -472
l463 -463 -455 -455 -455 -455 193 -192 192 -193 455 455 455 455 455 -455
455 -455 192 193 193 192 -455 455 -455 455 463 463 c254 254 462 467 462 472
0 13 -362 375 -375 375 -5 0 -218 -208 -472 -462 l-463 -463 -463 463 c-254
254 -467 462 -472 462 -6 0 -92 -82 -193 -183z"/>
</g>
</svg>
